<svg width="30" height="29" viewBox="0 0 30 29" fill="none" xmlns="http://www.w3.org/2000/svg">
<path fill-rule="evenodd" clip-rule="evenodd" d="M12.6522 13.6264H9.3208C8.81568 13.6264 8.4188 13.2088 8.4188 12.7052C8.4188 12.1893 8.81568 11.784 9.3208 11.784H12.6522C13.1573 11.784 13.5542 12.1893 13.5542 12.7052C13.5542 13.2088 13.1573 13.6264 12.6522 13.6264ZM5.364 7.24051C4.63037 7.24051 4.14931 7.49845 3.66824 8.06346C3.18717 8.62848 3.10299 9.43915 3.21123 10.1749L4.35376 18.2325C4.57024 19.7814 5.86913 20.9224 7.39651 20.9224H20.5176C22.1172 20.9224 23.4401 19.6708 23.5724 18.0495L24.6789 4.65987L26.4949 4.34051C26.976 4.25453 27.3127 3.7755 27.2285 3.28418C27.1443 2.78181 26.6753 2.44894 26.1822 2.52387L23.3138 2.96483C22.9049 3.03975 22.6043 3.38244 22.5682 3.80006L22.3397 6.55144C22.3036 6.94572 21.9909 7.24051 21.6061 7.24051H5.364ZM20.7104 22.8638C21.7207 22.8638 22.5385 23.699 22.5385 24.7308C22.5385 25.7503 21.7207 26.5855 20.7104 26.5855C19.7122 26.5855 18.8944 25.7503 18.8944 24.7308C18.8944 23.699 19.7122 22.8638 20.7104 22.8638ZM7.18026 22.8638C8.1905 22.8638 9.00832 23.699 9.00832 24.7308C9.00832 25.7503 8.1905 26.5855 7.18026 26.5855C6.18205 26.5855 5.36423 25.7503 5.36423 24.7308C5.36423 23.699 6.18205 22.8638 7.18026 22.8638Z" fill="#555555"/>
</svg>
