<svg width="32" height="31" viewBox="0 0 32 31" fill="none" xmlns="http://www.w3.org/2000/svg">
<path fill-rule="evenodd" clip-rule="evenodd" d="M22.0695 2.67081H10.1386C5.79368 2.67081 3.3408 5.09244 3.32803 9.36199V21.0872C3.32803 25.3555 5.79368 27.7784 10.1386 27.7784H22.0695C26.4144 27.7784 28.8788 25.3555 28.8788 21.0872V9.36199C28.8788 5.09244 26.4144 2.67081 22.0695 2.67081ZM16.0406 22.5812C15.49 22.5812 15.0314 22.1794 14.9803 21.6396V8.84729C14.9292 8.45812 15.1195 8.0677 15.4645 7.85554C15.8235 7.64212 16.2578 7.64212 16.6015 7.85554C16.9477 8.0677 17.1381 8.45812 17.101 8.84729V21.6396C17.0358 22.1794 16.5772 22.5812 16.0406 22.5812ZM10.1627 22.5812C9.6261 22.5812 9.16747 22.1794 9.10231 21.6396V17.522C9.06526 17.119 9.25562 16.7436 9.60183 16.5302C9.94549 16.3168 10.3799 16.3168 10.7376 16.5302C11.0838 16.7436 11.2741 17.119 11.223 17.522V21.6396C11.1719 22.1794 10.7133 22.5812 10.1627 22.5812ZM20.9336 21.6396C20.9847 22.1794 21.4434 22.5812 21.994 22.5812C22.5433 22.5812 23.0032 22.1794 23.0531 21.6396V12.9649C23.0914 12.5745 22.901 12.1866 22.5548 11.9732C22.2112 11.7598 21.7755 11.7598 21.4306 11.9732C21.0869 12.1866 20.894 12.5745 20.9336 12.9649V21.6396Z" fill="#555555"/>
</svg>
