<svg width="26" height="28" viewBox="0 0 26 28" fill="none" xmlns="http://www.w3.org/2000/svg">
<path d="M1.68884 4.04401C1.68884 2.65674 2.81345 1.53214 4.20072 1.53214H16.5C16.6665 1.53214 16.8263 1.5983 16.944 1.71607L24.1118 8.88384C24.2296 9.0016 24.2957 9.16133 24.2957 9.32788V24.139C24.2957 25.5263 23.1711 26.6509 21.7838 26.6509H4.20072C2.81345 26.6509 1.68884 25.5263 1.68884 24.139V4.04401Z" fill="#555555"/>
<path fill-rule="evenodd" clip-rule="evenodd" d="M4.20065 2.47409C3.33361 2.47409 2.63073 3.17697 2.63073 4.04401V24.139C2.63073 25.0061 3.33361 25.7089 4.20065 25.7089H21.7838C22.6508 25.7089 23.3537 25.0061 23.3537 24.139V9.45793L16.3699 2.47409H4.20065ZM0.746826 4.04401C0.746826 2.13652 2.29316 0.590183 4.20065 0.590183H16.4999C16.9163 0.590183 17.3156 0.755586 17.61 1.05L24.7778 8.21777C25.0722 8.51219 25.2376 8.9115 25.2376 9.32787V24.139C25.2376 26.0465 23.6913 27.5928 21.7838 27.5928H4.20065C2.29316 27.5928 0.746826 26.0465 0.746826 24.139V4.04401Z" fill="#555555"/>
<path d="M24.0814 8.85336L16.9745 1.74654C16.8954 1.66742 16.7601 1.72346 16.7601 1.83535V8.94217C16.7601 9.01153 16.8164 9.06776 16.8857 9.06776H23.9925C24.1044 9.06776 24.1605 8.93248 24.0814 8.85336Z" fill="#555555"/>
<path fill-rule="evenodd" clip-rule="evenodd" d="M15.8181 1.83535C15.8181 0.884263 16.968 0.40796 17.6405 1.08048L24.7474 8.1873C25.4199 8.85981 24.9436 10.0097 23.9925 10.0097H16.8857C16.2961 10.0097 15.8181 9.53175 15.8181 8.94217V1.83535ZM17.702 3.80621V8.12581H22.0216L17.702 3.80621Z" fill="#555555"/>
<path fill-rule="evenodd" clip-rule="evenodd" d="M7.02661 14.0915C7.02661 13.5713 7.44834 13.1496 7.96856 13.1496H18.0161C18.5363 13.1496 18.958 13.5713 18.958 14.0915C18.958 14.6117 18.5363 15.0335 18.0161 15.0335H7.96856C7.44834 15.0335 7.02661 14.6117 7.02661 14.0915Z" fill="#1D201F"/>
<path fill-rule="evenodd" clip-rule="evenodd" d="M7.02661 19.1153C7.02661 18.595 7.44834 18.1733 7.96856 18.1733H18.0161C18.5363 18.1733 18.958 18.595 18.958 19.1153C18.958 19.6355 18.5363 20.0572 18.0161 20.0572H7.96856C7.44834 20.0572 7.02661 19.6355 7.02661 19.1153Z" fill="#1D201F"/>
</svg>
