<svg width="31" height="31" viewBox="0 0 31 31" fill="none" xmlns="http://www.w3.org/2000/svg">
<path fill-rule="evenodd" clip-rule="evenodd" d="M19.929 16.5593C19.929 16.9792 19.5885 17.3197 19.1685 17.3197L5.98791 17.3197C5.56794 17.3197 5.22749 16.9792 5.22749 16.5592C5.22749 16.1393 5.56794 15.7988 5.98791 15.7988L19.1685 15.7988C19.5885 15.7988 19.929 16.1393 19.929 16.5593Z" fill="#555555" stroke="#555555" stroke-width="0.313984" stroke-linecap="round"/>
<path fill-rule="evenodd" clip-rule="evenodd" d="M10.5812 22.4436C10.2843 22.7405 9.8028 22.7405 9.50584 22.4436L4.50806 17.4458C4.1715 17.1092 4.1715 16.5636 4.50806 16.227L9.50584 11.2292C9.8028 10.9323 10.2843 10.9323 10.5812 11.2292C10.8782 11.5262 10.8782 12.0077 10.5812 12.3046L6.04946 16.8364L10.5812 21.3682C10.8782 21.6651 10.8782 22.1466 10.5812 22.4436Z" fill="#555555" stroke="#555555" stroke-width="0.313984" stroke-linecap="round"/>
<path fill-rule="evenodd" clip-rule="evenodd" d="M17.7326 7.37349C17.7326 6.95352 18.073 6.61307 18.493 6.61307H23.1231C23.5991 6.61307 23.9849 6.99892 23.9849 7.47488V26.1981C23.9849 26.6741 23.5991 27.0599 23.1231 27.0599H17.8171C17.3971 27.0599 17.0566 26.7195 17.0566 26.2995C17.0566 25.8795 17.3971 25.5391 17.8171 25.5391H22.4641V8.13391H18.493C18.073 8.13391 17.7326 7.79346 17.7326 7.37349Z" fill="#555555" stroke="#555555" stroke-width="0.313984" stroke-linecap="round"/>
</svg>
